<svg width="172" height="125" viewBox="0 0 172 125" fill="none" xmlns="http://www.w3.org/2000/svg">
<path d="M168.199 123.589C179.441 127.741 159.672 103.487 161.655 92.4605C161.655 92.4605 161.753 92.1634 161.403 92.0169C161.054 91.8704 160.889 92.1506 160.889 92.1506C157.17 98.6079 160.36 107.262 163.24 114.639C131.558 83.947 145.303 56.6485 156.389 19.5898C158.677 11.9402 151.556 10.8489 146.294 12.1309C134.693 16.3626 127.09 26.2649 118.333 33.0849C107.882 41.751 97.5666 53.2365 85.4896 60.6248C81.413 63.1179 77.7695 61.902 78.7619 57.0447C80.6338 47.8261 84.9626 37.2322 87.7391 28.2541C89.3694 23.1732 91.508 18.1081 92.1553 12.6512C92.9669 8.73775 88.3523 5.33111 84.0096 7.62154C72.3065 14.9292 52.4136 46.594 33.3006 46.9457C8.55873 47.3872 -1.53244 14.3326 2.74669 0.529317C2.77396 0.440801 2.75203 0.340531 2.68566 0.250211C2.61929 0.159892 2.51382 0.0867789 2.39205 0.0466756C2.21897 -0.0103393 2.0366 -0.0153422 1.88509 0.0327552C1.73357 0.0808526 1.62534 0.178116 1.58415 0.303149C-5.3165 17.6066 10.8141 57.934 40.6806 49.8417C56.5701 45.5278 68.4784 26.221 82.209 15.8551C82.9507 15.2946 85.3966 13.6232 84.1072 16.8566C78.6031 30.6013 72.5723 44.2979 70.0736 59.043C68.2919 72.6655 82.5978 71.7757 91.3497 65.6751C108.727 55.1985 124.64 38.4913 140.787 26.7841C143.354 24.9224 145.132 25.0797 144.162 28.3344C134.705 59.9409 129.67 90.3803 159.569 114.606C150.63 110.997 139.504 109.041 131.587 112.255C131.587 112.255 131.222 112.354 131.338 112.617C131.453 112.88 131.846 112.874 131.846 112.874C144.898 114.011 159.246 120.285 168.199 123.589ZM88.4227 11.8816C88.5461 11.8804 88.5069 11.8675 88.4227 11.8816V11.8816ZM78.7883 64.2339C78.8495 64.3116 78.8234 64.303 78.7883 64.2339V64.2339Z" fill="#17C2C2"/>
</svg>
